<?xml version="1.0" encoding="UTF-8"?>
<svg version="1.1" xmlns="http://www.w3.org/2000/svg" width="512" height="512">
<path d="M0 0 C2.75 2.1875 2.75 2.1875 4.75 5.1875 C4.92177775 7.94536415 4.98216238 10.59965524 4.9453125 13.35546875 C4.94106766 14.54768791 4.94106766 14.54768791 4.93673706 15.76399231 C4.92554705 18.30114838 4.90044491 20.83795072 4.875 23.375 C4.86496866 25.09569802 4.85584308 26.81640159 4.84765625 28.53710938 C4.82561161 32.75404243 4.79109006 36.97071125 4.75 41.1875 C5.8061381 41.18381283 6.86227619 41.18012566 7.95041847 41.17632675 C33.63901902 41.08756031 59.3275997 41.02181208 85.01632118 40.98025131 C97.43915886 40.95961904 109.86189528 40.93148559 122.28466797 40.88574219 C133.11133942 40.84589496 143.93793753 40.82007203 154.76468027 40.81114602 C160.49829903 40.80592773 166.23170798 40.79364875 171.96525955 40.76457977 C177.36113676 40.73744426 182.75671759 40.72905133 188.15265656 40.73506927 C190.13359818 40.73396821 192.11454964 40.72600336 194.09543228 40.7106781 C196.7999581 40.69077944 199.50336459 40.69556036 202.20791626 40.70648193 C202.99197456 40.69483057 203.77603286 40.6831792 204.5838505 40.67117476 C209.77826278 40.72788188 212.75883462 41.88085911 216.75 45.1875 C218.1674923 48.0224846 217.88081991 50.40098353 217.88701439 53.57287312 C217.88966622 54.23890205 217.89231804 54.90493099 217.89505023 55.59114262 C217.90276945 57.84481807 217.9033034 60.09843927 217.90390015 62.35212708 C217.90791303 63.97546214 217.91235096 65.5987962 217.9171797 67.22212905 C217.92917025 71.70017664 217.93479937 76.17821345 217.93936086 80.65627396 C217.94530748 85.47915427 217.95691958 90.30202161 217.96765137 95.12489319 C217.9921956 106.78009303 218.00680478 118.43529718 218.01971143 130.09051493 C218.02342167 133.38049259 218.02739503 136.67046983 218.0314641 139.96044707 C218.05669712 160.37574866 218.07875769 180.79105089 218.09119225 201.20636463 C218.09412211 205.93713699 218.09708375 210.66790933 218.10009766 215.39868164 C218.10084371 216.57454131 218.10158976 217.75040097 218.10235842 218.96189275 C218.11501944 238.02175333 218.14825147 257.08152078 218.18989949 276.14133779 C218.23227556 295.69403046 218.25588221 315.24667538 218.26111281 334.79941386 C218.26453167 345.78393501 218.27634283 356.76831058 218.30921555 367.75278664 C218.3371577 377.10520914 218.34824108 386.45745624 218.33702008 395.80991725 C218.33181859 400.58424397 218.33481651 405.35820303 218.35948563 410.13247681 C218.38186779 414.50048144 218.38132493 418.86785195 218.36228175 423.23586687 C218.35946617 424.81866675 218.36516621 426.40150864 218.38009469 427.98424063 C218.39911728 430.1318065 218.38747319 432.27709158 218.36803246 434.42460346 C218.36938898 435.6184992 218.37074551 436.81239493 218.37214315 438.04246932 C217.56822015 442.10642548 215.89494006 443.58555416 212.75 446.1875 C209.58034766 447.77232617 206.16902918 447.32049404 202.68893433 447.30775452 C201.42455337 447.30903615 201.42455337 447.30903615 200.13462937 447.31034368 C197.293996 447.3119983 194.45342095 447.3064774 191.61279297 447.30102539 C189.58296714 447.30074349 187.5531412 447.30090131 185.52331543 447.3014679 C179.99880779 447.30175575 174.4743217 447.29586089 168.94981909 447.28889394 C163.18156384 447.28265847 157.41330815 447.28205645 151.64505005 447.28086853 C140.71574436 447.27775579 129.78644863 447.26954316 118.85714734 447.25951904 C106.41719387 447.24835615 93.97723993 447.24284701 81.53728271 447.23782361 C55.94151627 447.2273605 30.34575869 447.20976215 4.75 447.1875 C4.77618408 448.24662598 4.80236816 449.30575195 4.8293457 450.39697266 C4.92016552 454.34402155 4.97736342 458.290979 5.0246582 462.23876953 C5.04973045 463.94400589 5.08379764 465.64913554 5.12719727 467.35400391 C5.18817566 469.81179174 5.21628112 472.26815361 5.23828125 474.7265625 C5.26408768 475.48305084 5.2898941 476.23953918 5.31648254 477.01895142 C5.31857614 481.01202066 4.92737985 483.47470651 2.40698242 486.65380859 C-0.32190589 489.25606927 -1.7194247 490.17821242 -5.48141098 490.20104027 C-17.74239184 489.28925435 -29.85899409 487.23530443 -42.00097656 485.35791016 C-44.60888805 484.95829859 -47.21685475 484.55906358 -49.82489014 484.16026306 C-56.14812402 483.19240773 -62.47052803 482.21923462 -68.79262283 481.24396922 C-73.93263757 480.4511073 -79.07291183 479.65994945 -84.21337128 478.86997604 C-85.69887537 478.64167463 -87.18437944 478.41337306 -88.66988349 478.18507135 C-89.40941905 478.07141526 -90.1489546 477.95775916 -90.91090032 477.84065895 C-104.86302098 475.69614307 -118.81414293 473.54518565 -132.76497456 471.39230268 C-145.51546495 469.42487183 -158.26723524 467.46587952 -171.01962498 465.51080115 C-184.13705914 463.49967346 -197.2535804 461.48268728 -210.36915183 459.45944631 C-217.72343855 458.32506595 -225.07806561 457.19301501 -232.43366241 456.06715775 C-238.69115597 455.10931749 -244.94776958 454.14595898 -251.20332363 453.17552949 C-254.39170936 452.68106769 -257.58054773 452.18996761 -260.77024841 451.70405006 C-264.23360554 451.17600809 -267.6953198 450.63824655 -271.15679932 450.09805298 C-272.65666299 449.87289062 -272.65666299 449.87289062 -274.18682694 449.64317954 C-289.13830278 447.27747852 -289.13830278 447.27747852 -292.97569156 443.4795571 C-294.65002214 440.4679932 -294.62831948 438.32585519 -294.63311005 434.88399601 C-294.64216669 433.57980876 -294.65122333 432.27562151 -294.66055441 430.93191344 C-294.65544987 429.48114299 -294.65005776 428.03037353 -294.64440918 426.5796051 C-294.6492963 425.04116127 -294.65548527 423.50272111 -294.66286707 421.96428722 C-294.67931246 417.73013574 -294.67693936 413.49616989 -294.6714921 409.26199758 C-294.66882756 404.69817069 -294.6833428 400.13439392 -294.69558716 395.57058716 C-294.71666744 386.62719122 -294.72118054 377.68386007 -294.71939927 368.74044222 C-294.71809301 361.47321849 -294.72188884 354.20601501 -294.72932434 346.93879509 C-294.73142347 344.84759853 -294.73352107 342.75640198 -294.73561716 340.66520542 C-294.73666069 339.6244477 -294.73770422 338.58368997 -294.73877937 337.51139414 C-294.75769205 317.81696394 -294.75662832 298.12257097 -294.74981004 278.42813545 C-294.74423319 260.39980014 -294.76506426 242.37160687 -294.79817051 224.34330476 C-294.83187928 205.84370871 -294.8470794 187.34418076 -294.84245348 168.84455341 C-294.84020602 158.45363926 -294.84549234 148.06285643 -294.87034607 137.67196846 C-294.89132284 128.82645461 -294.89498726 119.98114407 -294.87604648 111.13562197 C-294.86686638 106.62051945 -294.86581479 102.10579637 -294.88640213 97.59072304 C-294.90503076 93.45962049 -294.9007008 89.32921029 -294.87785631 85.19813477 C-294.87364991 83.70153906 -294.87793875 82.2048911 -294.89145225 80.70835049 C-294.90854205 78.67791192 -294.89196158 76.64727277 -294.87361908 74.61684513 C-294.87389146 73.48782656 -294.87416385 72.35880798 -294.87444448 71.19557673 C-294.04698376 67.20952926 -292.36360343 65.72616716 -289.25 63.1875 C-285.92486954 61.94160652 -285.92486954 61.94160652 -282.08355713 61.05813599 C-281.37992586 60.89101191 -280.67629458 60.72388784 -279.95134115 60.5516994 C-277.62257613 60.00305793 -275.28878388 59.48035432 -272.95410156 58.95751953 C-271.2915085 58.57126438 -269.62929482 58.18337303 -267.96744156 57.79394722 C-264.4810586 56.98036289 -260.99241826 56.17773397 -257.50141907 55.38419342 C-252.49612819 54.24624565 -247.49691614 53.08343277 -242.49890137 51.91400146 C-233.2361587 49.75063456 -223.96651944 47.6178358 -214.69559765 45.48983526 C-210.00925119 44.41358904 -205.32354395 43.33456617 -200.63775635 42.25588989 C-191.75306114 40.21102618 -182.86784464 38.1684377 -173.98241448 36.12677014 C-161.18308408 33.18565739 -148.3845967 30.24087997 -135.58611298 27.29608536 C-126.00706085 25.09214118 -116.42773281 22.88941082 -106.84777832 20.68939209 C-90.12388827 16.84798311 -73.40222816 12.99806555 -56.69202566 9.09748721 C-54.34002666 8.54873977 -51.98783141 8.000843 -49.63554764 7.45331764 C-48.88236779 7.27800495 -48.12918794 7.10269225 -47.35318446 6.92206705 C-45.86682526 6.57613736 -44.3804555 6.230253 -42.89407468 5.88441622 C-38.67933485 4.90320671 -34.46601895 3.91616246 -30.25374126 2.92443943 C-27.12509169 2.18952275 -23.99451603 1.46289256 -20.86425781 0.73486328 C-19.21069904 0.34223234 -19.21069904 0.34223234 -17.52373505 -0.05833054 C-5.20780431 -2.9043524 -5.20780431 -2.9043524 0 0 Z M4.75 63.1875 C4.75 77.0475 4.75 90.9075 4.75 105.1875 C25.54 105.1875 46.33 105.1875 67.75 105.1875 C67.75 91.3275 67.75 77.4675 67.75 63.1875 C46.96 63.1875 26.17 63.1875 4.75 63.1875 Z M89.75 63.1875 C89.75 77.0475 89.75 90.9075 89.75 105.1875 C124.73 105.1875 159.71 105.1875 195.75 105.1875 C195.75 91.3275 195.75 77.4675 195.75 63.1875 C160.77 63.1875 125.79 63.1875 89.75 63.1875 Z M4.75 127.1875 C4.75 141.0475 4.75 154.9075 4.75 169.1875 C25.54 169.1875 46.33 169.1875 67.75 169.1875 C67.75 155.3275 67.75 141.4675 67.75 127.1875 C46.96 127.1875 26.17 127.1875 4.75 127.1875 Z M89.75 127.1875 C89.75 141.0475 89.75 154.9075 89.75 169.1875 C124.73 169.1875 159.71 169.1875 195.75 169.1875 C195.75 155.3275 195.75 141.4675 195.75 127.1875 C160.77 127.1875 125.79 127.1875 89.75 127.1875 Z M4.75 191.1875 C4.75 205.0475 4.75 218.9075 4.75 233.1875 C25.54 233.1875 46.33 233.1875 67.75 233.1875 C67.75 219.3275 67.75 205.4675 67.75 191.1875 C46.96 191.1875 26.17 191.1875 4.75 191.1875 Z M89.75 191.1875 C89.75 205.0475 89.75 218.9075 89.75 233.1875 C124.73 233.1875 159.71 233.1875 195.75 233.1875 C195.75 219.3275 195.75 205.4675 195.75 191.1875 C160.77 191.1875 125.79 191.1875 89.75 191.1875 Z M4.75 255.1875 C4.75 269.0475 4.75 282.9075 4.75 297.1875 C25.54 297.1875 46.33 297.1875 67.75 297.1875 C67.75 283.3275 67.75 269.4675 67.75 255.1875 C46.96 255.1875 26.17 255.1875 4.75 255.1875 Z M89.75 255.1875 C89.75 269.0475 89.75 282.9075 89.75 297.1875 C124.73 297.1875 159.71 297.1875 195.75 297.1875 C195.75 283.3275 195.75 269.4675 195.75 255.1875 C160.77 255.1875 125.79 255.1875 89.75 255.1875 Z M4.75 319.1875 C4.75 333.0475 4.75 346.9075 4.75 361.1875 C25.54 361.1875 46.33 361.1875 67.75 361.1875 C67.75 347.3275 67.75 333.4675 67.75 319.1875 C46.96 319.1875 26.17 319.1875 4.75 319.1875 Z M89.75 319.1875 C89.75 333.0475 89.75 346.9075 89.75 361.1875 C124.73 361.1875 159.71 361.1875 195.75 361.1875 C195.75 347.3275 195.75 333.4675 195.75 319.1875 C160.77 319.1875 125.79 319.1875 89.75 319.1875 Z M4.75 383.1875 C4.75 397.0475 4.75 410.9075 4.75 425.1875 C25.54 425.1875 46.33 425.1875 67.75 425.1875 C67.75 411.3275 67.75 397.4675 67.75 383.1875 C46.96 383.1875 26.17 383.1875 4.75 383.1875 Z M89.75 383.1875 C89.75 397.0475 89.75 410.9075 89.75 425.1875 C124.73 425.1875 159.71 425.1875 195.75 425.1875 C195.75 411.3275 195.75 397.4675 195.75 383.1875 C160.77 383.1875 125.79 383.1875 89.75 383.1875 Z " fill="#4CAF50" transform="translate(294.25,11.8125)"/>
<path d="M0 0 C5.82233214 2.27236749 8.27219312 7.59817483 11.375 12.6875 C11.982229 13.66283691 12.58945801 14.63817383 13.21508789 15.64306641 C14.50200249 17.71182242 15.78420168 19.78351816 17.06201172 21.85791016 C19.54788262 25.88829041 22.06415161 29.8992293 24.58007812 33.91088867 C26.44432672 36.88589421 28.30305147 39.86428057 30.16015625 42.84375 C32.85047036 47.15938971 35.54624057 51.47157351 38.24609375 55.78125 C38.93711182 56.88484863 39.62812988 57.98844727 40.34008789 59.12548828 C41.67329188 61.2544559 43.00709154 63.38305065 44.34155273 65.51123047 C44.93782471 66.46400879 45.53409668 67.41678711 46.1484375 68.3984375 C46.94000244 69.66179932 46.94000244 69.66179932 47.74755859 70.95068359 C49 73 49 73 50 75 C56.18219404 65.54034343 62.26678847 56.0243786 68.25 46.4375 C68.87648438 45.43396484 69.50296875 44.43042969 70.1484375 43.39648438 C73.46839372 38.0731063 76.77886919 32.74397012 80.08203125 27.41015625 C80.74879883 26.33644775 81.41556641 25.26273926 82.10253906 24.15649414 C83.37198232 22.11207064 84.63845288 20.06579708 85.90136719 18.01733398 C95.0473294 3.3017804 95.0473294 3.3017804 100 0 C106.94677871 -0.67226891 106.94677871 -0.67226891 110.9375 1.875 C114.10413217 5.13759072 114.54440463 7.73118093 114.48242188 12.29785156 C113.46637054 17.98897314 109.87443531 22.61827117 106.75 27.375 C106.00924335 28.53442917 105.27041324 29.69509129 104.53344727 30.85693359 C103.05711662 33.17789426 101.57036704 35.4915439 100.07275391 37.79882812 C97.79941009 41.30979209 95.56721254 44.84470782 93.34350586 48.38720703 C91.92815052 50.63988059 90.5040121 52.88679314 89.078125 55.1328125 C84.79641918 61.88908411 80.5692289 68.6795522 76.33764648 75.46728516 C75.74540283 76.41651855 75.15315918 77.36575195 74.54296875 78.34375 C73.96724121 79.27574219 73.39151367 80.20773438 72.79833984 81.16796875 C71.54902297 83.13539689 70.25387594 85.0741659 68.92431641 86.98828125 C68.2647998 87.95121094 67.6052832 88.91414063 66.92578125 89.90625 C66.01372925 91.19499023 66.01372925 91.19499023 65.08325195 92.50976562 C63.72177521 94.95020189 63.72177521 94.95020189 64.61254883 97.47412109 C66.10786856 100.19637658 67.63785633 102.86676221 69.2734375 105.5078125 C69.92707275 106.56693848 70.58070801 107.62606445 71.25415039 108.71728516 C71.9609516 109.85328261 72.66790504 110.98918537 73.375 112.125 C74.10497905 113.30372342 74.83471292 114.48259871 75.56420898 115.66162109 C80.63351475 123.84465538 85.75811924 131.99241739 90.9140625 140.12109375 C96.44879731 148.85485406 101.92064198 157.6291122 107.37646484 166.41235352 C108.41260362 168.06378733 109.46361282 169.70604646 110.53369141 171.33569336 C110.9879248 172.03186768 111.4421582 172.72804199 111.91015625 173.4453125 C112.30468994 174.03715332 112.69922363 174.62899414 113.10571289 175.23876953 C114.82314471 178.62112093 114.48921638 181.26972514 114 185 C112.65635159 188.25304353 111.74432243 189.57754673 108.6875 191.3125 C105.49641372 192.1288244 103.28179825 192.46882832 100 192 C93.50440394 187.76617983 90.25919186 181.42989663 86.375 174.875 C85.6647581 173.69536358 84.95323523 172.51649753 84.24047852 171.33837891 C83.16582908 169.56175067 82.09193136 167.78472227 81.02204895 166.00521851 C78.06281462 161.08362273 75.02214585 156.21865877 71.9375 151.375 C68.59096163 146.113498 65.27365978 140.83608862 61.99609375 135.53125 C60.97044312 133.87536865 60.97044312 133.87536865 59.92407227 132.18603516 C58.57809373 130.01110832 57.23600765 127.83376683 55.89819336 125.65380859 C55.28983643 124.67234863 54.68147949 123.69088867 54.0546875 122.6796875 C53.51312012 121.80038574 52.97155273 120.92108398 52.41357422 120.01513672 C51.15291898 117.87837146 51.15291898 117.87837146 49 117 C48.77828125 117.64066406 48.5565625 118.28132813 48.328125 118.94140625 C46.49355687 123.16630874 44.13586063 127.00333958 41.75 130.9375 C41.22059814 131.8150293 40.69119629 132.69255859 40.14575195 133.59667969 C35.68488296 140.95226405 31.09155442 148.21998505 26.44897461 155.46191406 C23.22443016 160.49339586 20.03176426 165.54187738 16.8828125 170.62109375 C16.20323486 171.71647461 15.52365723 172.81185547 14.82348633 173.94042969 C13.50749078 176.06532235 12.19469731 178.19220231 10.88549805 180.32128906 C9.99278198 181.76133301 9.99278198 181.76133301 9.08203125 183.23046875 C8.55843018 184.08020264 8.0348291 184.92993652 7.49536133 185.80541992 C5.23516926 189.12245934 3.85198788 190.71600404 0 192 C-4.19987818 192.38887761 -6.29607238 192.45908323 -9.875 190.125 C-12.76010816 187.23989184 -13.23023903 185.49354443 -13.44140625 181.5078125 C-13.35919176 175.04413281 -10.55087433 171.04705674 -6.9375 165.875 C-5.64174847 163.93327895 -4.34752957 161.99053444 -3.0546875 160.046875 C-2.38276367 159.05107422 -1.71083984 158.05527344 -1.01855469 157.02929688 C2.24547356 152.13088583 5.33701548 147.12789626 8.4375 142.125 C9.68308765 140.12728852 10.92918542 138.12989502 12.17578125 136.1328125 C12.7992041 135.13282227 13.42262695 134.13283203 14.06494141 133.10253906 C17.41424572 127.73249626 20.77001145 122.3664926 24.125 117 C26.77905219 112.75440187 26.77905219 112.75440187 29.41894531 108.5 C30.43484459 106.89363672 31.48411028 105.30764116 32.57324219 103.75 C34.64485862 100.73881355 35.94524902 98.80812447 36.1953125 95.1171875 C34.37644759 90.37387313 31.67583168 86.34594526 28.875 82.125 C27.58877681 80.14652655 26.30365776 78.16733494 25.01953125 76.1875 C24.3538916 75.1665625 23.68825195 74.145625 23.00244141 73.09375 C19.79673023 68.1409614 16.6793878 63.1339901 13.5625 58.125 C12.31657699 56.12619565 11.07048185 54.12749857 9.82421875 52.12890625 C9.2007959 51.12875488 8.57737305 50.12860352 7.93505859 49.09814453 C5.92721114 45.88346068 3.91177448 42.67363903 1.89453125 39.46484375 C1.22156006 38.39282715 0.54858887 37.32081055 -0.14477539 36.21630859 C-1.42474517 34.17776222 -2.70636989 32.14025359 -3.98999023 30.10400391 C-15.17199034 12.27395651 -15.17199034 12.27395651 -14 7 C-10.15475446 0.97766692 -7.08136847 -0.48009278 0 0 Z " fill="#F7F9F7" transform="translate(99,160)"/>
</svg>
