<?xml version="1.0" encoding="UTF-8"?>
<svg version="1.1" xmlns="http://www.w3.org/2000/svg" width="512" height="512">
<path d="M0 0 C1.74899707 -0.00417686 3.49799142 -0.00965631 5.24698079 -0.01631981 C10.03554157 -0.03074688 14.82392984 -0.02653825 19.61249995 -0.019153 C24.78371585 -0.01441685 29.95489467 -0.02693514 35.12609863 -0.03717041 C45.25013387 -0.054355 55.37410704 -0.05519911 65.49815308 -0.04995751 C73.72817702 -0.04591393 81.95818264 -0.0473616 90.18820572 -0.05270576 C91.36013931 -0.05345419 92.5320729 -0.05420261 93.73951963 -0.05497371 C96.12040352 -0.05650521 98.50128741 -0.05804356 100.88217129 -0.05958868 C123.20309119 -0.0733125 145.52397604 -0.06787686 167.84489514 -0.05640347 C188.25747803 -0.04647133 208.66997028 -0.05941167 229.08253919 -0.08333766 C250.05143326 -0.10773021 271.02028511 -0.11733613 291.98919308 -0.11068493 C303.75793731 -0.10719305 315.52661182 -0.10942276 327.29534531 -0.12693596 C337.31381444 -0.14165986 347.33216477 -0.14229084 357.35063158 -0.12486505 C362.45998442 -0.11635429 367.56912504 -0.1142075 372.6784668 -0.1295166 C377.36040457 -0.14337117 382.04194847 -0.13859054 386.7238635 -0.11927737 C388.41286402 -0.11551943 390.10189616 -0.11843335 391.79086851 -0.12888902 C409.01802042 -0.22790749 422.70524574 3.99072265 435.42605591 15.94236755 C444.01339974 24.85725518 450.89090522 36.93288812 450.91574574 49.56279755 C450.92020358 50.61534682 450.92466142 51.66789609 450.92925435 52.75234079 C450.92897781 54.48518517 450.92897781 54.48518517 450.92869568 56.2530365 C450.93237237 57.48122022 450.93604905 58.70940394 450.93983716 59.97480536 C450.94895739 63.38588935 450.95357225 66.79692526 450.95622647 70.20801687 C450.96013275 73.88647298 450.96971097 77.5649152 450.97843933 81.24336243 C450.99819622 90.12873897 451.00826969 99.01411665 451.01716712 107.89950967 C451.02155193 112.08597147 451.0269183 116.27243201 451.03215599 120.45889282 C451.0491687 134.3799895 451.06366168 148.30108539 451.07090473 162.22219086 C451.07281457 165.83432008 451.07473491 169.44644929 451.07669067 173.05857849 C451.07717441 173.95633442 451.07765815 174.85409035 451.07815655 175.77905101 C451.08645239 190.31394738 451.11178156 204.84876134 451.14427135 219.38362175 C451.17737146 234.31353182 451.19535622 249.24340005 451.19854897 264.173347 C451.20071151 272.55295389 451.20942236 280.93244065 451.23501015 289.31201172 C451.25675764 296.45037888 451.26474778 303.58859673 451.25504337 310.72699326 C451.25051012 314.36600328 451.25232735 318.00470549 451.27180481 321.64367294 C451.29278667 325.59805968 451.28241414 329.55202657 451.26927185 333.50645447 C451.28572572 335.21253018 451.28572572 335.21253018 451.30251199 336.95307207 C451.18752218 351.3375138 445.47452184 364.56620263 435.71902466 375.13768005 C421.93560509 388.05229805 406.74020403 390.84674226 388.52545166 390.77536011 C386.78455382 390.77953805 385.0436587 390.78501809 383.30276859 390.79167992 C378.54120053 390.80609277 373.77980617 390.80190283 369.01822877 390.79451311 C363.87427806 390.78977343 358.7303645 390.80229836 353.58642578 390.81253052 C343.5176716 390.82970815 333.44897985 390.83056067 323.38021483 390.82531761 C315.19455975 390.82127276 307.00892309 390.82272322 298.82326889 390.82806587 C297.07433091 390.82918851 297.07433091 390.82918851 295.29006084 390.83033382 C292.92125822 390.83186533 290.5524556 390.83340368 288.18365298 390.83494879 C265.98001397 390.84867008 243.77641021 390.84323873 221.57277201 390.83176357 C201.27085902 390.82183155 180.96903717 390.83477203 160.66713823 390.85869776 C139.80781883 390.88309472 118.94854187 390.89269516 98.08920848 390.88604504 C86.38360435 390.88255416 74.6780703 390.88477629 62.97247696 390.90229607 C53.00785922 390.91702546 43.04336092 390.91764376 33.0787455 390.90022516 C27.99761514 390.89171895 22.9166981 390.88955646 17.83557892 390.90487671 C13.17830042 390.91874486 8.52141757 390.91393327 3.86416183 390.89463747 C2.18526755 390.89088369 0.50634141 390.89378138 -1.17252444 390.90424912 C-18.2140015 391.00289261 -33.12326878 387.15860664 -45.96847534 375.32518005 C-57.05916731 363.50855188 -61.69063406 349.79332415 -61.6061554 333.80079651 C-61.61154093 332.56748624 -61.61692647 331.33417597 -61.62247521 330.06349266 C-61.63424858 326.66580662 -61.63271113 323.26861518 -61.62530839 319.87094951 C-61.62055858 316.1966737 -61.63310255 312.52244936 -61.64332581 308.84819031 C-61.66048392 301.65989113 -61.66136002 294.47167948 -61.6561129 287.28336515 C-61.65206429 281.43796904 -61.65352295 275.59259871 -61.65886116 269.74720383 C-61.65960958 268.91386431 -61.660358 268.08052479 -61.66112911 267.22193255 C-61.66266065 265.52876266 -61.664199 263.83559278 -61.66574407 262.1424229 C-61.67945837 246.27958317 -61.67403902 230.41679282 -61.66255886 214.55395423 C-61.65262819 200.0582288 -61.66556617 185.56263104 -61.68949305 171.0669253 C-61.71390588 156.16393396 -61.72348652 141.26100203 -61.71684033 126.3579911 C-61.71335288 117.99860857 -61.71554872 109.63932418 -61.73309135 101.27995682 C-61.7478407 94.16367695 -61.74841323 87.04756435 -61.73102044 79.93128766 C-61.72253034 76.30439955 -61.72031162 72.6778099 -61.735672 69.05093765 C-61.75215517 65.10998405 -61.73732094 61.16948686 -61.71968079 57.22853088 C-61.72928579 56.09523979 -61.7388908 54.9619487 -61.74878687 53.79431546 C-61.61694016 39.42364993 -55.90209409 26.19899461 -46.15597534 15.63768005 C-32.70099352 3.00928415 -17.86028644 -0.06949536 0 0 Z M-6.21847534 30.38768005 C-6.51783643 33.29521535 -6.51783643 33.29521535 -5.11198759 34.86791396 C-4.32563641 35.65336951 -4.32563641 35.65336951 -3.52339935 36.45469284 C-2.92222211 37.06245992 -2.32104487 37.67022701 -1.70165014 38.29641128 C-0.69429807 39.29167874 -0.69429807 39.29167874 0.33340454 40.30705261 C1.03829813 41.01521504 1.74319171 41.72337746 2.46944571 42.45299935 C4.84827476 44.83914782 7.23772895 47.21436828 9.62722778 49.58982849 C11.32914915 51.29254022 13.03041782 52.99590458 14.7310791 54.69987488 C18.883051 58.85646147 23.04194743 63.00604013 27.20400923 67.15251705 C32.05316465 71.98414851 36.89426665 76.82381544 41.73499507 81.66388729 C50.37823434 90.30543681 59.02852307 98.93989498 67.68289185 107.57029724 C76.0724314 115.93662059 84.45745075 124.30743759 92.83718872 132.68357849 C93.35240273 133.19856973 93.86761673 133.71356097 94.39844328 134.244158 C95.43641489 135.28168699 96.47438619 136.31921627 97.51235721 137.35674585 C98.28048229 138.12454159 98.28048229 138.12454159 99.06412506 138.90784836 C99.57494701 139.41845432 100.08576895 139.92906028 100.61207035 140.45513915 C108.6042793 148.44363851 116.60031286 156.428309 124.59686628 164.41245918 C127.49058734 167.30175601 130.38381754 170.1915433 133.27670449 173.08167526 C138.30270749 178.10281112 143.33134892 183.12129003 148.36281204 188.13695526 C150.03091174 189.80054925 151.69818587 191.46497153 153.36455917 193.1302948 C155.64533108 195.40930785 157.92915728 197.68521669 160.21377563 199.96037292 C160.86749791 200.61496168 161.52122018 201.26955043 162.19475222 201.94397521 C166.0200061 205.74560783 169.95836713 209.36188618 174.04752493 212.87857938 C176.2924874 214.83237114 178.4039884 216.89707368 180.50027466 219.0087738 C181.28660278 219.79832458 182.07293091 220.58787537 182.88308716 221.40135193 C183.67457153 222.20121521 184.46605591 223.00107849 185.28152466 223.82518005 C186.10394653 224.65211365 186.92636841 225.47904724 187.77371216 226.33103943 C189.77864578 228.34762964 191.78118719 230.36653242 193.78152466 232.38768005 C197.43617451 230.85375217 199.72546466 228.66140225 202.48464966 225.8447113 C203.38312622 224.93527771 204.28160278 224.02584412 205.20730591 223.08885193 C206.14909397 222.12633474 207.09049821 221.16344186 208.03152466 220.20018005 C209.86758783 218.32925493 211.70609061 216.46072051 213.54714966 214.5947113 C214.3595813 213.76431335 215.17201294 212.93391541 216.00906372 212.07835388 C218.12645351 210.02342672 220.25664583 208.09487058 222.49131012 206.17549038 C226.55458878 202.63131712 230.39467695 198.91213969 234.19741821 195.09204102 C234.89845751 194.39185614 235.59949681 193.69167127 236.32177973 192.97026867 C238.64862926 190.64505417 240.97190838 188.31630607 243.29519653 185.98753357 C244.97101718 184.3114306 246.64705855 182.6355483 248.32330322 180.95986938 C252.85798427 176.42547455 257.38958147 171.88800917 261.92062187 167.34997678 C266.18096961 163.08352031 270.44411468 158.81985967 274.70700389 154.55594289 C283.1455877 146.11517511 291.58193993 137.67218061 300.01687622 129.22776794 C308.20645372 121.02899934 316.39708986 112.83129069 324.58914185 104.63499451 C325.34767304 103.87606923 325.34767304 103.87606923 326.12152809 103.10181213 C328.65863788 100.56339722 331.19576839 98.02500302 333.7329092 95.48661911 C354.75232715 74.45684897 375.76808099 53.42341991 396.78152466 32.38768005 C396.45152466 31.72768005 396.12152466 31.06768005 395.78152466 30.38768005 C263.12152466 30.38768005 130.46152466 30.38768005 -6.21847534 30.38768005 Z M-30.21847534 54.38768005 C-31.42995304 55.37916573 -31.42995304 55.37916573 -31.34267384 57.30724674 C-31.34229412 58.15744056 -31.3419144 59.00763438 -31.34152317 59.88359165 C-31.34351422 60.86093346 -31.34550527 61.83827527 -31.34755665 62.8452335 C-31.34464381 63.93178618 -31.34173097 65.01833886 -31.33872986 66.13781738 C-31.33958428 67.28206647 -31.34043871 68.42631555 -31.34131902 69.60523885 C-31.34268716 72.79543511 -31.33953988 75.98559129 -31.33454096 79.1757828 C-31.33023962 82.61069849 -31.33168266 86.04561216 -31.33244324 89.48052979 C-31.33296867 95.43644725 -31.32981982 101.39235379 -31.3242054 107.34826851 C-31.31609306 115.9596183 -31.31347545 124.5709628 -31.31221741 133.182316 C-31.31002647 147.15222225 -31.30336525 161.12212267 -31.29391479 175.09202576 C-31.28474176 188.66591869 -31.2776604 202.23981004 -31.27340698 215.81370544 C-31.27314426 216.64980148 -31.27288154 217.48589752 -31.27261085 218.3473298 C-31.27130585 222.54159911 -31.27004214 226.73586843 -31.26879895 230.93013775 C-31.25842503 265.74932267 -31.24080558 300.56850083 -31.21847534 335.38768005 C-26.8002309 335.38768005 -24.84880991 332.59306334 -21.82394409 329.67454529 C-21.13503586 329.01879485 -20.44612762 328.36304441 -19.73634338 327.68742275 C-8.1611335 316.58898055 3.11663838 305.1784488 14.44303513 293.82756352 C17.87378022 290.39048915 21.30743251 286.95632134 24.74075317 283.52182007 C31.21627672 277.04321104 37.68925112 270.56206149 44.1612711 264.07995266 C51.54038759 256.68958767 58.9224061 249.30212424 66.30464745 241.91488087 C81.46679556 226.74233153 96.62536819 211.56621442 111.78152466 196.38768005 C110.1934742 192.48475475 107.52483726 189.85090255 104.58361816 186.93580627 C104.04852493 186.39759306 103.51343169 185.85937984 102.96212351 185.30485713 C101.1675621 183.50231761 99.36593537 181.70701218 97.5642395 179.91160583 C96.27603308 178.62068935 94.98825252 177.32934777 93.7008667 176.03761292 C90.20110824 172.52872645 86.6950397 169.02620888 83.18754911 165.5250535 C79.51541037 161.85797694 75.84815257 158.18602448 72.18011475 154.5148468 C66.01487735 148.34596857 59.84543076 142.18132345 53.6736145 136.01902771 C46.54790196 128.90418064 39.42939691 121.78218342 32.31463087 114.65639126 C26.20185793 108.53452577 20.08517502 102.41658748 13.96524203 96.30187976 C10.31212087 92.65186996 6.66034833 89.00053844 3.01209641 85.34566116 C-0.42248752 81.90527648 -3.86197215 78.46986592 -7.30521011 75.03814316 C-8.56460799 73.78137813 -9.82232872 72.52292971 -11.07819366 71.26263428 C-17.14991459 65.17148082 -23.1166016 59.29782477 -30.21847534 54.38768005 Z M418.78152466 54.38768005 C403.78153865 68.19445557 389.41571803 82.62089768 375.01862025 97.04919052 C371.59055367 100.48359313 368.1595734 103.91508269 364.72892761 107.34690857 C358.26051959 113.81840014 351.79466034 120.29243183 345.32975918 126.76742649 C337.95787756 134.15056273 330.58308856 141.53079204 323.20807827 148.91080284 C308.06270249 164.06657547 292.92090245 179.22591608 277.78152466 194.38768005 C279.36174799 198.25626828 281.9835943 200.86735692 284.90350342 203.75689697 C285.69389261 204.55090779 285.69389261 204.55090779 286.50024927 205.36095923 C288.26717938 207.13352499 290.04116761 208.89885206 291.81521606 210.66429138 C293.08372534 211.93387363 294.35180153 213.20388872 295.61947632 214.4743042 C299.06562582 217.92530496 302.51800064 221.37001578 305.97164202 224.81351686 C309.588018 228.42110775 313.19911935 232.03397128 316.81091309 235.64614868 C322.88218533 241.7164839 328.95731955 247.78293217 335.03494263 253.84690857 C342.05001352 260.8462854 349.05987625 267.850843 356.06673682 274.85843831 C363.53510292 282.32748166 371.00727988 289.79270365 378.48056746 297.25682235 C380.62801647 299.40214564 382.77475913 301.54817358 384.92134476 303.69436073 C388.30556614 307.07757242 391.69234511 310.45820381 395.08106232 313.83691216 C396.32022889 315.07317434 397.55856967 316.31026493 398.7959938 317.54827118 C407.7768058 327.07854738 407.7768058 327.07854738 417.78152466 335.38768005 C418.77152466 335.38768005 419.76152466 335.38768005 420.78152466 335.38768005 C420.78152466 242.98768005 420.78152466 150.58768005 420.78152466 55.38768005 C419.79152466 54.89268005 419.79152466 54.89268005 418.78152466 54.38768005 Z M129.96203417 221.07808924 C129.4163233 221.62671295 128.87061243 222.17533666 128.30836487 222.74058533 C127.73172956 223.31636621 127.15509425 223.89214709 126.56098515 224.48537588 C124.61314692 226.43155598 122.66892396 228.38130907 120.72463989 230.33103943 C119.33556216 231.72039898 117.94626468 233.10953887 116.5567627 234.49847412 C112.77164173 238.28330693 108.98962249 242.07122577 105.20812869 245.85968208 C101.26074441 249.81329695 97.31054794 253.76409994 93.36064148 257.7151947 C85.87527799 265.20367238 78.39246833 272.69469661 70.91055971 280.18662596 C62.39512909 288.713215 53.87687532 297.23698125 45.35837638 305.76050472 C27.82960305 323.29974444 10.30440031 340.8425483 -7.21847534 358.38768005 C-6.88847534 359.04768005 -6.55847534 359.70768005 -6.21847534 360.38768005 C126.44152466 360.38768005 259.10152466 360.38768005 395.78152466 360.38768005 C395.78152466 356.70719137 394.61303196 355.86251179 392.11728859 353.33620006 C391.57255583 352.80020582 391.02782307 352.26421158 390.46658325 351.7119751 C389.89488592 351.13771449 389.32318859 350.56345389 388.7341671 349.97179145 C386.80650202 348.03916411 384.8682701 346.11749015 382.92996216 344.19554138 C381.55002528 342.81645024 380.17074771 341.4366991 378.79208374 340.05633545 C375.03856243 336.3019507 371.27583966 332.55691015 367.51145172 328.8134253 C363.58230336 324.90298571 359.66160595 320.98409219 355.74002075 317.06607056 C348.30865775 309.64404509 340.86967804 302.2297023 333.42796135 294.81805962 C324.95790039 286.38148952 316.49632042 277.93643534 308.03545761 269.49064219 C290.62692959 252.1135019 273.2077279 234.74709389 255.78152466 217.38768005 C251.74849544 220.78397307 247.82931828 224.21633824 244.118927 227.9684906 C243.27470184 228.81924667 242.43047668 229.67000275 241.56066895 230.54653931 C240.67191071 231.44673294 239.78315247 232.34692657 238.86746216 233.2743988 C237.92574617 234.22307635 236.98365125 235.17137788 236.04119873 236.11932373 C232.07071711 240.11405241 228.10608738 244.11455234 224.14578247 248.11936951 C222.18340818 250.1033808 220.21836013 252.08467362 218.25042725 254.06317139 C216.40416459 255.91975199 214.56201337 257.78043246 212.7244873 259.6456604 C211.46760605 260.90760979 211.46760605 260.90760979 210.18533325 262.1950531 C209.08782242 263.30375008 209.08782242 263.30375008 207.96813965 264.43484497 C203.82755816 268.13274004 200.54241961 269.84061135 194.96902466 269.95018005 C193.99320435 269.99271912 193.01738403 270.03525818 192.01199341 270.0790863 C183.02835577 268.15634886 176.16615984 259.01958969 169.97293091 252.73924255 C168.95594496 251.71597364 167.93843374 250.69322653 166.92042542 249.67097473 C164.26484039 247.00219563 161.61491805 244.32787239 158.96664429 241.65184021 C154.70524978 237.34700625 150.4367871 233.0492046 146.16526604 228.75442123 C144.67545959 227.25437454 143.18909563 225.75097769 141.70304871 224.24720764 C140.80799118 223.3456192 139.91293365 222.44403076 138.99075317 221.51512146 C138.19991837 220.71603363 137.40908356 219.9169458 136.59428406 219.09364319 C133.36517051 216.05476849 132.74770426 218.30366604 129.96203417 221.07808924 Z " fill="#000000" transform="translate(61.218475341796875,60.61231994628906)"/>
</svg>
