<?xml version="1.0" encoding="UTF-8"?>
<svg version="1.1" xmlns="http://www.w3.org/2000/svg" width="512" height="512">
<path d="M0 0 C2.75 2.1875 2.75 2.1875 4.75 5.1875 C4.92177775 7.94536415 4.98216238 10.59965524 4.9453125 13.35546875 C4.94106766 14.54768791 4.94106766 14.54768791 4.93673706 15.76399231 C4.92554705 18.30114838 4.90044491 20.83795072 4.875 23.375 C4.86496866 25.09569802 4.85584308 26.81640159 4.84765625 28.53710938 C4.82561161 32.75404243 4.79109006 36.97071125 4.75 41.1875 C5.8061381 41.18381283 6.86227619 41.18012566 7.95041847 41.17632675 C33.63901902 41.08756031 59.3275997 41.02181208 85.01632118 40.98025131 C97.43915886 40.95961904 109.86189528 40.93148559 122.28466797 40.88574219 C133.11133942 40.84589496 143.93793753 40.82007203 154.76468027 40.81114602 C160.49829903 40.80592773 166.23170798 40.79364875 171.96525955 40.76457977 C177.36113676 40.73744426 182.75671759 40.72905133 188.15265656 40.73506927 C190.13359818 40.73396821 192.11454964 40.72600336 194.09543228 40.7106781 C196.7999581 40.69077944 199.50336459 40.69556036 202.20791626 40.70648193 C202.99197456 40.69483057 203.77603286 40.6831792 204.5838505 40.67117476 C209.77826278 40.72788188 212.75883462 41.88085911 216.75 45.1875 C218.1674923 48.0224846 217.88081991 50.40098353 217.88701439 53.57287312 C217.88966622 54.23890205 217.89231804 54.90493099 217.89505023 55.59114262 C217.90276945 57.84481807 217.9033034 60.09843927 217.90390015 62.35212708 C217.90791303 63.97546214 217.91235096 65.5987962 217.9171797 67.22212905 C217.92917025 71.70017664 217.93479937 76.17821345 217.93936086 80.65627396 C217.94530748 85.47915427 217.95691958 90.30202161 217.96765137 95.12489319 C217.9921956 106.78009303 218.00680478 118.43529718 218.01971143 130.09051493 C218.02342167 133.38049259 218.02739503 136.67046983 218.0314641 139.96044707 C218.05669712 160.37574866 218.07875769 180.79105089 218.09119225 201.20636463 C218.09412211 205.93713699 218.09708375 210.66790933 218.10009766 215.39868164 C218.10084371 216.57454131 218.10158976 217.75040097 218.10235842 218.96189275 C218.11501944 238.02175333 218.14825147 257.08152078 218.18989949 276.14133779 C218.23227556 295.69403046 218.25588221 315.24667538 218.26111281 334.79941386 C218.26453167 345.78393501 218.27634283 356.76831058 218.30921555 367.75278664 C218.3371577 377.10520914 218.34824108 386.45745624 218.33702008 395.80991725 C218.33181859 400.58424397 218.33481651 405.35820303 218.35948563 410.13247681 C218.38186779 414.50048144 218.38132493 418.86785195 218.36228175 423.23586687 C218.35946617 424.81866675 218.36516621 426.40150864 218.38009469 427.98424063 C218.39911728 430.1318065 218.38747319 432.27709158 218.36803246 434.42460346 C218.36938898 435.6184992 218.37074551 436.81239493 218.37214315 438.04246932 C217.56822015 442.10642548 215.89494006 443.58555416 212.75 446.1875 C209.58034766 447.77232617 206.16902918 447.32049404 202.68893433 447.30775452 C201.42455337 447.30903615 201.42455337 447.30903615 200.13462937 447.31034368 C197.293996 447.3119983 194.45342095 447.3064774 191.61279297 447.30102539 C189.58296714 447.30074349 187.5531412 447.30090131 185.52331543 447.3014679 C179.99880779 447.30175575 174.4743217 447.29586089 168.94981909 447.28889394 C163.18156384 447.28265847 157.41330815 447.28205645 151.64505005 447.28086853 C140.71574436 447.27775579 129.78644863 447.26954316 118.85714734 447.25951904 C106.41719387 447.24835615 93.97723993 447.24284701 81.53728271 447.23782361 C55.94151627 447.2273605 30.34575869 447.20976215 4.75 447.1875 C4.77618408 448.24662598 4.80236816 449.30575195 4.8293457 450.39697266 C4.92016552 454.34402155 4.97736342 458.290979 5.0246582 462.23876953 C5.04973045 463.94400589 5.08379764 465.64913554 5.12719727 467.35400391 C5.18817566 469.81179174 5.21628112 472.26815361 5.23828125 474.7265625 C5.26408768 475.48305084 5.2898941 476.23953918 5.31648254 477.01895142 C5.31857614 481.01202066 4.92737985 483.47470651 2.40698242 486.65380859 C-0.32190589 489.25606927 -1.7194247 490.17821242 -5.48141098 490.20104027 C-17.74239184 489.28925435 -29.85899409 487.23530443 -42.00097656 485.35791016 C-44.60888805 484.95829859 -47.21685475 484.55906358 -49.82489014 484.16026306 C-56.14812402 483.19240773 -62.47052803 482.21923462 -68.79262283 481.24396922 C-73.93263757 480.4511073 -79.07291183 479.65994945 -84.21337128 478.86997604 C-85.69887537 478.64167463 -87.18437944 478.41337306 -88.66988349 478.18507135 C-89.40941905 478.07141526 -90.1489546 477.95775916 -90.91090032 477.84065895 C-104.86302098 475.69614307 -118.81414293 473.54518565 -132.76497456 471.39230268 C-145.51546495 469.42487183 -158.26723524 467.46587952 -171.01962498 465.51080115 C-184.13705914 463.49967346 -197.2535804 461.48268728 -210.36915183 459.45944631 C-217.72343855 458.32506595 -225.07806561 457.19301501 -232.43366241 456.06715775 C-238.69115597 455.10931749 -244.94776958 454.14595898 -251.20332363 453.17552949 C-254.39170936 452.68106769 -257.58054773 452.18996761 -260.77024841 451.70405006 C-264.23360554 451.17600809 -267.6953198 450.63824655 -271.15679932 450.09805298 C-272.65666299 449.87289062 -272.65666299 449.87289062 -274.18682694 449.64317954 C-289.13830278 447.27747852 -289.13830278 447.27747852 -292.97569156 443.4795571 C-294.65002214 440.4679932 -294.62831948 438.32585519 -294.63311005 434.88399601 C-294.64216669 433.57980876 -294.65122333 432.27562151 -294.66055441 430.93191344 C-294.65544987 429.48114299 -294.65005776 428.03037353 -294.64440918 426.5796051 C-294.6492963 425.04116127 -294.65548527 423.50272111 -294.66286707 421.96428722 C-294.67931246 417.73013574 -294.67693936 413.49616989 -294.6714921 409.26199758 C-294.66882756 404.69817069 -294.6833428 400.13439392 -294.69558716 395.57058716 C-294.71666744 386.62719122 -294.72118054 377.68386007 -294.71939927 368.74044222 C-294.71809301 361.47321849 -294.72188884 354.20601501 -294.72932434 346.93879509 C-294.73142347 344.84759853 -294.73352107 342.75640198 -294.73561716 340.66520542 C-294.73666069 339.6244477 -294.73770422 338.58368997 -294.73877937 337.51139414 C-294.75769205 317.81696394 -294.75662832 298.12257097 -294.74981004 278.42813545 C-294.74423319 260.39980014 -294.76506426 242.37160687 -294.79817051 224.34330476 C-294.83187928 205.84370871 -294.8470794 187.34418076 -294.84245348 168.84455341 C-294.84020602 158.45363926 -294.84549234 148.06285643 -294.87034607 137.67196846 C-294.89132284 128.82645461 -294.89498726 119.98114407 -294.87604648 111.13562197 C-294.86686638 106.62051945 -294.86581479 102.10579637 -294.88640213 97.59072304 C-294.90503076 93.45962049 -294.9007008 89.32921029 -294.87785631 85.19813477 C-294.87364991 83.70153906 -294.87793875 82.2048911 -294.89145225 80.70835049 C-294.90854205 78.67791192 -294.89196158 76.64727277 -294.87361908 74.61684513 C-294.87389146 73.48782656 -294.87416385 72.35880798 -294.87444448 71.19557673 C-294.04698376 67.20952926 -292.36360343 65.72616716 -289.25 63.1875 C-285.92486954 61.94160652 -285.92486954 61.94160652 -282.08355713 61.05813599 C-281.37992586 60.89101191 -280.67629458 60.72388784 -279.95134115 60.5516994 C-277.62257613 60.00305793 -275.28878388 59.48035432 -272.95410156 58.95751953 C-271.2915085 58.57126438 -269.62929482 58.18337303 -267.96744156 57.79394722 C-264.4810586 56.98036289 -260.99241826 56.17773397 -257.50141907 55.38419342 C-252.49612819 54.24624565 -247.49691614 53.08343277 -242.49890137 51.91400146 C-233.2361587 49.75063456 -223.96651944 47.6178358 -214.69559765 45.48983526 C-210.00925119 44.41358904 -205.32354395 43.33456617 -200.63775635 42.25588989 C-191.75306114 40.21102618 -182.86784464 38.1684377 -173.98241448 36.12677014 C-161.18308408 33.18565739 -148.3845967 30.24087997 -135.58611298 27.29608536 C-126.00706085 25.09214118 -116.42773281 22.88941082 -106.84777832 20.68939209 C-90.12388827 16.84798311 -73.40222816 12.99806555 -56.69202566 9.09748721 C-54.34002666 8.54873977 -51.98783141 8.000843 -49.63554764 7.45331764 C-48.88236779 7.27800495 -48.12918794 7.10269225 -47.35318446 6.92206705 C-45.86682526 6.57613736 -44.3804555 6.230253 -42.89407468 5.88441622 C-38.67933485 4.90320671 -34.46601895 3.91616246 -30.25374126 2.92443943 C-27.12509169 2.18952275 -23.99451603 1.46289256 -20.86425781 0.73486328 C-19.21069904 0.34223234 -19.21069904 0.34223234 -17.52373505 -0.05833054 C-5.20780431 -2.9043524 -5.20780431 -2.9043524 0 0 Z M4.75 63.1875 C4.75 91.2375 4.75 119.2875 4.75 148.1875 C7.39 146.2075 10.03 144.2275 12.75 142.1875 C21.48774153 135.7221577 30.70161891 131.96628926 41.14453125 129.0390625 C43.00815308 128.5143335 43.00815308 128.5143335 44.90942383 127.97900391 C46.31550903 127.58720947 46.31550903 127.58720947 47.75 127.1875 C47.73667633 128.26292557 47.73667633 128.26292557 47.7230835 129.3600769 C47.64254225 136.15572749 47.58183628 142.95130565 47.54275131 149.74731255 C47.52198073 153.24027947 47.49385994 156.73284814 47.44824219 160.22558594 C47.39599054 164.25198939 47.37696802 168.27798227 47.359375 172.3046875 C47.33872986 173.54362762 47.31808472 174.78256775 47.29681396 176.05905151 C47.29410614 186.63914985 49.52570167 194.70621946 56.9140625 202.4375 C66.5420444 211.61481041 77.79111151 212.65952783 90.734375 212.48046875 C91.91598206 212.47622391 93.09758911 212.47197906 94.31500244 212.46760559 C98.04357896 212.45097753 101.77159025 212.41335515 105.5 212.375 C108.04686713 212.35993266 110.59374283 212.34624787 113.140625 212.33398438 C119.34393885 212.3011262 125.54692902 212.25108797 131.75 212.1875 C130.99374001 215.04402038 130.22810749 217.89747646 129.45703125 220.75 C129.24630981 221.54986328 129.03558838 222.34972656 128.81848145 223.17382812 C123.81909248 241.54084288 111.31399264 256.91617022 94.9375 266.5 C76.89459417 276.53762898 55.71507864 278.50194939 35.890625 273.14453125 C25.01208367 269.47480497 15.77086791 264.65216809 7.4296875 256.7265625 C6.00681243 255.07490511 6.00681243 255.07490511 4.75 255.1875 C4.75 269.0475 4.75 282.9075 4.75 297.1875 C9.02541748 297.20208252 13.30083496 297.21666504 17.70581055 297.23168945 C31.81542771 297.28197609 45.92493447 297.34840978 60.03444195 297.42321491 C68.59090125 297.46818337 77.14731883 297.5075956 85.70385742 297.53393555 C93.16160975 297.55690715 100.61923017 297.59029573 108.07687789 297.63620156 C112.02578141 297.66014518 115.97455421 297.67886645 119.92352867 297.68511391 C123.64099078 297.69115968 127.35811833 297.71114077 131.07545662 297.74177551 C133.08906285 297.75475218 135.10274721 297.75298441 137.11639404 297.7507782 C138.31807724 297.76331635 139.51976044 297.77585449 140.75785828 297.78877258 C142.32168007 297.79568603 142.32168007 297.79568603 143.91709423 297.80273914 C147.19679883 298.24818352 149.0925635 299.24411473 151.75 301.1875 C153.59438013 304.87626027 153.23788734 309.16080313 152.75 313.1875 C150.86484777 315.76387471 149.55665143 316.78417428 146.75 318.1875 C144.87510037 318.2930229 142.99645284 318.33412683 141.11862183 318.34571838 C139.92106262 318.3555072 138.72350342 318.36529602 137.48965454 318.37538147 C136.15570108 318.381286 134.82174721 318.38709643 133.48779297 318.39282227 C132.08849802 318.40239847 130.68920597 318.4124084 129.28991699 318.42282104 C125.48439024 318.44990412 121.67885105 318.47089522 117.873281 318.49082303 C113.89874333 318.51266163 109.92424417 318.5400607 105.94973755 318.56687927 C98.42039056 318.61683496 90.89102222 318.6617631 83.36163342 318.70490164 C74.79098712 318.75424946 66.22037945 318.80917668 57.6497705 318.86458123 C40.0165479 318.97844543 22.38328986 319.08453817 4.75 319.1875 C4.75 333.0475 4.75 346.9075 4.75 361.1875 C9.02541748 361.20208252 13.30083496 361.21666504 17.70581055 361.23168945 C31.81542771 361.28197609 45.92493447 361.34840978 60.03444195 361.42321491 C68.59090125 361.46818337 77.14731883 361.5075956 85.70385742 361.53393555 C93.16160975 361.55690715 100.61923017 361.59029573 108.07687789 361.63620156 C112.02578141 361.66014518 115.97455421 361.67886645 119.92352867 361.68511391 C123.64099078 361.69115968 127.35811833 361.71114077 131.07545662 361.74177551 C133.08906285 361.75475218 135.10274721 361.75298441 137.11639404 361.7507782 C138.31807724 361.76331635 139.51976044 361.77585449 140.75785828 361.78877258 C141.80040614 361.79338155 142.84295401 361.79799051 143.91709423 361.80273914 C147.19679883 362.24818352 149.0925635 363.24411473 151.75 365.1875 C153.59438013 368.87626027 153.23788734 373.16080313 152.75 377.1875 C150.86484777 379.76387471 149.55665143 380.78417428 146.75 382.1875 C144.87510037 382.2930229 142.99645284 382.33412683 141.11862183 382.34571838 C139.92106262 382.3555072 138.72350342 382.36529602 137.48965454 382.37538147 C136.15570108 382.381286 134.82174721 382.38709643 133.48779297 382.39282227 C132.08849802 382.40239847 130.68920597 382.4124084 129.28991699 382.42282104 C125.48439024 382.44990412 121.67885105 382.47089522 117.873281 382.49082303 C113.89874333 382.51266163 109.92424417 382.5400607 105.94973755 382.56687927 C98.42039056 382.61683496 90.89102222 382.6617631 83.36163342 382.70490164 C74.79098712 382.75424946 66.22037945 382.80917668 57.6497705 382.86458123 C40.0165479 382.97844543 22.38328986 383.08453817 4.75 383.1875 C4.75 397.0475 4.75 410.9075 4.75 425.1875 C67.78 425.1875 130.81 425.1875 195.75 425.1875 C195.75 305.7275 195.75 186.2675 195.75 63.1875 C132.72 63.1875 69.69 63.1875 4.75 63.1875 Z " fill="#FE5722" transform="translate(294.25,11.8125)"/>
<path d="M0 0 C1.57874908 -0.02398109 1.57874908 -0.02398109 3.18939209 -0.04844666 C4.32991028 -0.05380936 5.47042847 -0.05917206 6.64550781 -0.06469727 C7.82647034 -0.07372574 9.00743286 -0.08275421 10.22418213 -0.09205627 C12.73259949 -0.10658582 15.24105499 -0.11545219 17.74951172 -0.11914062 C21.54234466 -0.13092857 25.33349245 -0.179998 29.12597656 -0.23071289 C49.075601 -0.36509069 64.70269395 1.96182403 80.03613281 15.86889648 C92.3941165 29.01514662 95.37455082 44.25752108 95.18481445 61.67089844 C95.16106123 64.00091865 95.16429755 66.32979994 95.17089844 68.65991211 C95.13889898 86.37391577 91.04060409 100.69629305 78.56347656 113.68530273 C72.86710543 119.16501316 67.20090641 122.49423654 59.84863281 125.30639648 C59.06101562 125.65831055 58.27339844 126.01022461 57.46191406 126.37280273 C51.43148256 128.52717213 45.17237127 128.44507839 38.85253906 128.40405273 C38.01899399 128.40263779 37.18544891 128.40122284 36.3266449 128.39976501 C33.68810295 128.39420817 31.04964872 128.38166389 28.41113281 128.36889648 C26.61230592 128.3638759 24.81347769 128.35931397 23.01464844 128.35522461 C18.62594323 128.34425291 14.23730285 128.32701844 9.84863281 128.30639648 C9.85751526 128.99464508 9.86639771 129.68289368 9.87554932 130.39199829 C9.96411576 137.56211026 10.0244062 144.73206655 10.06835938 151.90258789 C10.08620106 154.57803024 10.1157433 157.25261665 10.15039062 159.92797852 C10.19896787 163.7755822 10.22161646 167.62260435 10.23925781 171.47045898 C10.25990295 172.66442291 10.2805481 173.85838684 10.30181885 175.08853149 C10.30353348 181.44885792 10.22900869 185.51747223 5.84863281 190.30639648 C2.44065109 192.89176193 -0.99208229 192.74421595 -5.15136719 192.30639648 C-8.66954017 190.11731107 -10.68068658 188.15779134 -12.15136719 184.30639648 C-12.40863609 181.08230782 -12.40863609 181.08230782 -12.41879272 177.18411255 C-12.42332384 176.46622303 -12.42785495 175.74833351 -12.43252337 175.00868976 C-12.44518509 172.60281436 -12.44354588 170.19716481 -12.44189453 167.79125977 C-12.44787867 166.0664338 -12.45468395 164.34161052 -12.46224976 162.61679077 C-12.4799284 157.9308095 -12.48460591 153.24490126 -12.48588133 148.55888987 C-12.4877801 144.64734019 -12.49513736 140.73580753 -12.50222552 136.82426441 C-12.51851408 127.59580618 -12.52339404 118.36738697 -12.52197266 109.13891602 C-12.52077101 99.61855327 -12.5418764 90.09841716 -12.57345998 80.57811177 C-12.59960907 72.40474573 -12.61034053 64.23145377 -12.60906184 56.05804622 C-12.60855181 51.17628254 -12.61425745 46.29472023 -12.63541794 41.4129982 C-12.65477735 36.8213798 -12.65494058 32.23015537 -12.64038467 27.6385231 C-12.63829263 25.95429916 -12.64302101 24.27005072 -12.65510559 22.58586884 C-12.67054897 20.28433208 -12.66125744 17.9841553 -12.64584351 15.68264771 C-12.64747781 13.75190997 -12.64747781 13.75190997 -12.64914513 11.78216743 C-12.05883069 7.66025364 -10.7541781 5.52157906 -8.15136719 2.30639648 C-4.86076905 0.11266439 -3.82740128 0.04401682 0 0 Z " fill="#FAF6F5" transform="translate(97.1513671875,159.693603515625)"/>
<path d="M0 0 C6.1217322 3.29200702 11.41573642 7.09257218 16.5625 11.75 C17.33207031 12.42675781 18.10164063 13.10351562 18.89453125 13.80078125 C28.63485932 22.87737316 34.48320583 34.19832562 38.5625 46.75 C38.80871094 47.4821875 39.05492187 48.214375 39.30859375 48.96875 C40.72382344 54.04405649 40.85545045 59.26077127 41 64.5 C41.03456299 65.23379883 41.06912598 65.96759766 41.10473633 66.72363281 C41.1357968 70.77911028 40.75003561 72.51946842 38.16015625 75.703125 C34.10779849 78.89626104 31.94884492 78.88680272 26.80541992 78.92700195 C26.11090225 78.93357315 25.41638458 78.94014435 24.70082092 78.94691467 C22.39820247 78.96665458 20.09564926 78.97831196 17.79296875 78.98828125 C17.00669916 78.99235678 16.22042957 78.9964323 15.41033363 79.00063133 C11.24841194 79.02149541 7.08652324 79.03579542 2.92456055 79.04516602 C-1.37304819 79.05622899 -5.67013893 79.09062611 -9.96756458 79.13033772 C-13.27301492 79.15649152 -16.57834163 79.16485674 -19.88388634 79.16844749 C-21.46791773 79.17331699 -23.05194347 79.18494143 -24.63587379 79.20348549 C-26.85507786 79.22785119 -29.07293927 79.22691743 -31.29223633 79.2199707 C-32.55417313 79.22583694 -33.81610992 79.23170319 -35.11628723 79.23774719 C-39.07183351 78.65684295 -40.65975485 77.58156257 -43.4375 74.75 C-45.86478775 71.32576904 -45.70221824 68.08391238 -45.72802734 63.96533203 C-45.73474457 63.29163574 -45.74146179 62.61793945 -45.74838257 61.92382812 C-45.76734473 59.70174741 -45.77128583 57.47996904 -45.7734375 55.2578125 C-45.7798668 53.70848467 -45.78659526 52.15915806 -45.79360962 50.60983276 C-45.80557799 47.36339504 -45.80929092 44.11706369 -45.80810547 40.87060547 C-45.80790233 36.71883447 -45.83520057 32.56774837 -45.86964989 28.4161396 C-45.89193209 25.21614474 -45.89594261 22.01631434 -45.89488602 18.81624985 C-45.89724014 17.28608719 -45.90605312 15.75591988 -45.92155075 14.22583389 C-45.94123846 12.08122618 -45.93536362 9.93809054 -45.92333984 7.79345703 C-45.92618988 6.57530304 -45.92903992 5.35714905 -45.93197632 4.1020813 C-45.33908083 0.08281122 -43.935959 -2.08600098 -41.4375 -5.25 C-31.02440723 -12.67872185 -10.38784373 -4.93422577 0 0 Z " fill="#FF5721" transform="translate(407.4375,124.25)"/>
<path d="M0 0 C45.67770923 0 45.67770923 0 55.24609375 9.0078125 C63.1055012 17.93497909 64.35172116 27.74383406 64.31567383 39.20288086 C64.31252393 41.29659616 64.33597426 43.38888176 64.36132812 45.48242188 C64.41669531 57.07011845 62.58591137 67.02762928 54.40234375 75.69140625 C38.68597646 89.97575829 22.2111319 85 0 85 C0 56.95 0 28.9 0 0 Z " fill="#FE5823" transform="translate(107,182)"/>
</svg>
