<svg width="16" height="16" viewBox="0 0 16 16" fill="none" xmlns="http://www.w3.org/2000/svg">
<path d="M7.04004 1.28223C7.32052 0.323147 8.67948 0.323147 8.95996 1.28223L10.1094 5.21191C10.2051 5.53915 10.4609 5.79486 10.7881 5.89062L14.7178 7.04004C15.6769 7.32052 15.6769 8.67948 14.7178 8.95996L10.7881 10.1094C10.4609 10.2051 10.2051 10.4609 10.1094 10.7881L8.95996 14.7178C8.67948 15.6769 7.32052 15.6769 7.04004 14.7178L5.89062 10.7881C5.79486 10.4609 5.53915 10.2051 5.21191 10.1094L1.28223 8.95996C0.323147 8.67948 0.323147 7.32052 1.28223 7.04004L5.21191 5.89062C5.53915 5.79486 5.79486 5.53915 5.89062 5.21191L7.04004 1.28223Z" fill="#405CA5"/>
<path d="M7.04004 1.28223C7.32052 0.323147 8.67948 0.323147 8.95996 1.28223L10.1094 5.21191C10.2051 5.53915 10.4609 5.79486 10.7881 5.89062L14.7178 7.04004C15.6769 7.32052 15.6769 8.67948 14.7178 8.95996L10.7881 10.1094C10.4609 10.2051 10.2051 10.4609 10.1094 10.7881L8.95996 14.7178C8.67948 15.6769 7.32052 15.6769 7.04004 14.7178L5.89062 10.7881C5.79486 10.4609 5.53915 10.2051 5.21191 10.1094L1.28223 8.95996C0.323147 8.67948 0.323147 7.32052 1.28223 7.04004L5.21191 5.89062C5.53915 5.79486 5.79486 5.53915 5.89062 5.21191L7.04004 1.28223Z" stroke="white"/>
</svg>
